<svg width="20" height="20" viewBox="0 0 20 20" fill="none" xmlns="http://www.w3.org/2000/svg">
<path d="M18.3332 7.7085H1.6665C1.32484 7.7085 1.0415 7.42516 1.0415 7.0835C1.0415 6.74183 1.32484 6.4585 1.6665 6.4585H18.3332C18.6748 6.4585 18.9582 6.74183 18.9582 7.0835C18.9582 7.42516 18.6748 7.7085 18.3332 7.7085Z" fill="#D1B06B"/>
<path d="M6.66667 14.375H5C4.65833 14.375 4.375 14.0917 4.375 13.75C4.375 13.4083 4.65833 13.125 5 13.125H6.66667C7.00833 13.125 7.29167 13.4083 7.29167 13.75C7.29167 14.0917 7.00833 14.375 6.66667 14.375Z" fill="#D1B06B"/>
<path d="M12.0833 14.375H8.75C8.40833 14.375 8.125 14.0917 8.125 13.75C8.125 13.4083 8.40833 13.125 8.75 13.125H12.0833C12.425 13.125 12.7083 13.4083 12.7083 13.75C12.7083 14.0917 12.425 14.375 12.0833 14.375Z" fill="#D1B06B"/>
<path d="M14.6332 17.7082H5.3665C2.04984 17.7082 1.0415 16.7082 1.0415 13.4248V6.57484C1.0415 3.2915 2.04984 2.2915 5.3665 2.2915H14.6248C17.9415 2.2915 18.9498 3.2915 18.9498 6.57484V13.4165C18.9582 16.7082 17.9498 17.7082 14.6332 17.7082ZM5.3665 3.5415C2.74984 3.5415 2.2915 3.9915 2.2915 6.57484V13.4165C2.2915 15.9998 2.74984 16.4498 5.3665 16.4498H14.6248C17.2415 16.4498 17.6998 15.9998 17.6998 13.4165V6.57484C17.6998 3.9915 17.2415 3.5415 14.6248 3.5415H5.3665Z" fill="#D1B06B"/>
</svg>
