<svg width="20" height="20" viewBox="0 0 20 20" fill="none" xmlns="http://www.w3.org/2000/svg">
<path d="M10.8748 13.5419H9.30818C8.19985 13.5419 7.2915 12.6085 7.2915 11.4585C7.2915 11.1169 7.57484 10.8335 7.9165 10.8335C8.25817 10.8335 8.5415 11.1169 8.5415 11.4585C8.5415 11.9169 8.88318 12.2919 9.30818 12.2919H10.8748C11.1998 12.2919 11.4582 12.0002 11.4582 11.6419C11.4582 11.1919 11.3332 11.1252 11.0498 11.0252L8.5415 10.1502C8.00817 9.95852 7.2915 9.57519 7.2915 8.35019C7.2915 7.30853 8.11651 6.4502 9.12485 6.4502H10.6915C11.7998 6.4502 12.7082 7.38353 12.7082 8.53353C12.7082 8.8752 12.4248 9.15853 12.0832 9.15853C11.7415 9.15853 11.4582 8.8752 11.4582 8.53353C11.4582 8.0752 11.1165 7.7002 10.6915 7.7002H9.12485C8.79985 7.7002 8.5415 7.99186 8.5415 8.35019C8.5415 8.80019 8.6665 8.86685 8.94983 8.96685L11.4582 9.84186C11.9915 10.0335 12.7082 10.4169 12.7082 11.6419C12.7082 12.6919 11.8832 13.5419 10.8748 13.5419Z" fill="#D1B06B"/>
<path d="M10 14.375C9.65833 14.375 9.375 14.0917 9.375 13.75V6.25C9.375 5.90833 9.65833 5.625 10 5.625C10.3417 5.625 10.625 5.90833 10.625 6.25V13.75C10.625 14.0917 10.3417 14.375 10 14.375Z" fill="#D1B06B"/>
<path d="M9.99984 18.9582C5.05817 18.9582 1.0415 14.9415 1.0415 9.99984C1.0415 5.05817 5.05817 1.0415 9.99984 1.0415C10.3415 1.0415 10.6248 1.32484 10.6248 1.6665C10.6248 2.00817 10.3415 2.2915 9.99984 2.2915C5.74984 2.2915 2.2915 5.74984 2.2915 9.99984C2.2915 14.2498 5.74984 17.7082 9.99984 17.7082C14.2498 17.7082 17.7082 14.2498 17.7082 9.99984C17.7082 9.65817 17.9915 9.37484 18.3332 9.37484C18.6748 9.37484 18.9582 9.65817 18.9582 9.99984C18.9582 14.9415 14.9415 18.9582 9.99984 18.9582Z" fill="#D1B06B"/>
<path d="M18.3333 5.62484C17.9917 5.62484 17.7083 5.3415 17.7083 4.99984V2.2915H15C14.6583 2.2915 14.375 2.00817 14.375 1.6665C14.375 1.32484 14.6583 1.0415 15 1.0415H18.3333C18.675 1.0415 18.9583 1.32484 18.9583 1.6665V4.99984C18.9583 5.3415 18.675 5.62484 18.3333 5.62484Z" fill="#D1B06B"/>
<path d="M14.1669 6.45853C14.0085 6.45853 13.8502 6.40019 13.7252 6.27519C13.4835 6.03353 13.4835 5.63353 13.7252 5.39186L17.8919 1.2252C18.1335 0.983529 18.5335 0.983529 18.7752 1.2252C19.0169 1.46686 19.0169 1.86686 18.7752 2.10853L14.6085 6.27519C14.4835 6.40019 14.3252 6.45853 14.1669 6.45853Z" fill="#D1B06B"/>
</svg>
