<svg width="20" height="20" viewBox="0 0 20 20" fill="none" xmlns="http://www.w3.org/2000/svg">
<path d="M4.16683 19.7917C2.7835 19.7917 1.48349 19.0583 0.783495 17.8667C0.408495 17.2667 0.208496 16.5583 0.208496 15.8333C0.208496 13.65 1.9835 11.875 4.16683 11.875C6.35016 11.875 8.12516 13.65 8.12516 15.8333C8.12516 16.5583 7.92516 17.2667 7.55016 17.875C6.85016 19.0583 5.55016 19.7917 4.16683 19.7917ZM4.16683 13.125C2.67516 13.125 1.4585 14.3417 1.4585 15.8333C1.4585 16.325 1.59183 16.8083 1.85016 17.225C2.34183 18.0583 3.2085 18.5417 4.16683 18.5417C5.12516 18.5417 5.99183 18.05 6.48349 17.2333C6.74183 16.8083 6.87516 16.3333 6.87516 15.8333C6.87516 14.3417 5.6585 13.125 4.16683 13.125Z" fill="#D1B06B"/>
<path d="M3.69157 17.2836C3.53324 17.2836 3.3749 17.2253 3.2499 17.1003L2.4249 16.2753C2.18324 16.0337 2.18324 15.6336 2.4249 15.3919C2.66657 15.1503 3.06657 15.1503 3.30824 15.3919L3.70824 15.792L5.04157 14.5586C5.29157 14.3253 5.69157 14.342 5.9249 14.592C6.15824 14.842 6.14157 15.242 5.89157 15.4753L4.11657 17.1169C3.99157 17.2253 3.84157 17.2836 3.69157 17.2836Z" fill="#D1B06B"/>
<path d="M5.15853 6.50853C4.95853 6.50853 4.7752 6.41687 4.6502 6.2502C4.50854 6.05854 4.49187 5.80851 4.6002 5.60018C4.74187 5.31685 4.94187 5.04187 5.2002 4.79187L7.90854 2.0752C9.29187 0.700195 11.5419 0.700195 12.9252 2.0752L14.3835 3.55855C15.0002 4.16689 15.3752 4.98355 15.4169 5.85022C15.4252 6.04189 15.3502 6.2252 15.2085 6.3502C15.0669 6.4752 14.8752 6.53353 14.6919 6.50019C14.5252 6.47519 14.3502 6.46688 14.1669 6.46688H5.83353C5.63353 6.46688 5.44187 6.48353 5.2502 6.50853C5.2252 6.50853 5.19187 6.50853 5.15853 6.50853ZM6.5502 5.20854H14.0169C13.9085 4.9252 13.7335 4.66688 13.5002 4.43354L12.0335 2.95019C11.1419 2.06685 9.68353 2.06685 8.78353 2.95019L6.5502 5.20854Z" fill="#D1B06B"/>
<path d="M14.1666 18.9585H6.35824C6.09157 18.9585 5.85823 18.7918 5.76657 18.5502C5.6749 18.3002 5.7499 18.0252 5.9499 17.8585C6.1499 17.6918 6.33323 17.4752 6.46657 17.2418C6.73323 16.8168 6.86657 16.3335 6.86657 15.8418C6.86657 14.3502 5.6499 13.1335 4.15824 13.1335C3.38324 13.1335 2.64157 13.4668 2.1249 14.0585C1.9499 14.2502 1.6749 14.3252 1.43324 14.2335C1.19157 14.1418 1.0249 13.9085 1.0249 13.6502V10.0002C1.0249 7.4335 2.60824 5.57517 5.06657 5.26684C5.29157 5.2335 5.5499 5.2085 5.81657 5.2085H14.1499C14.3499 5.2085 14.6082 5.21683 14.8749 5.25849C17.3332 5.54183 18.9416 7.4085 18.9416 10.0002V14.1668C18.9582 17.0335 17.0332 18.9585 14.1666 18.9585ZM7.6499 17.7085H14.1666C16.3166 17.7085 17.7082 16.3168 17.7082 14.1668V10.0002C17.7082 8.05016 16.5666 6.70848 14.7166 6.49181C14.5166 6.45848 14.3416 6.4585 14.1666 6.4585H5.83324C5.63324 6.4585 5.44157 6.47515 5.2499 6.50015C3.41657 6.73349 2.29157 8.06683 2.29157 10.0002V12.3502C2.85824 12.0418 3.50824 11.8752 4.16657 11.8752C6.3499 11.8752 8.1249 13.6502 8.1249 15.8335C8.1249 16.4918 7.95824 17.1418 7.6499 17.7085Z" fill="#D1B06B"/>
<path d="M18.3332 14.3748H15.8332C14.5665 14.3748 13.5415 13.3498 13.5415 12.0832C13.5415 10.8165 14.5665 9.7915 15.8332 9.7915H18.3332C18.6748 9.7915 18.9582 10.0748 18.9582 10.4165C18.9582 10.7582 18.6748 11.0415 18.3332 11.0415H15.8332C15.2582 11.0415 14.7915 11.5082 14.7915 12.0832C14.7915 12.6582 15.2582 13.1248 15.8332 13.1248H18.3332C18.6748 13.1248 18.9582 13.4082 18.9582 13.7498C18.9582 14.0915 18.6748 14.3748 18.3332 14.3748Z" fill="#D1B06B"/>
</svg>
